<svg width="440" height="440" viewBox="0 0 440 440" fill="none" xmlns="http://www.w3.org/2000/svg">
<circle cx="220" cy="220" r="220" fill="white" fill-opacity="0.5"/>
<rect x="92" y="86" width="255" height="326" rx="15" fill="#002B45"/>
<rect x="76" y="28" width="287" height="367" rx="15" fill="#002B45"/>
<path d="M78 43C78 34.7157 84.7157 28 93 28H335V380C335 388.284 328.284 395 320 395H93C84.7157 395 78 388.284 78 380V43Z" fill="#09536F" fill-opacity="0.3"/>
<path d="M347 28C350.866 28 354 31.134 354 35V367.5C354 369.433 352.433 371 350.5 371C348.567 371 347 369.433 347 367.5V28Z" fill="#002135"/>
<path d="M109.75 412C108.784 412 108 411.216 108 410.25C108 407.351 110.351 405 113.25 405L325 405C328.866 405 332 408.134 332 412L109.75 412Z" fill="#002135"/>
<rect x="108" y="11" width="223" height="182" rx="26" stroke="#FF8665" stroke-width="8"/>
<circle cx="147.5" cy="239.5" r="20.5" fill="white"/>
<circle cx="148" cy="240" r="25" fill="#F2C94C" fill-opacity="0.5"/>
<ellipse cx="220" cy="240.5" rx="21" ry="20.5" fill="white"/>
<circle cx="292.5" cy="240.5" r="20.5" fill="white"/>
<circle cx="220" cy="241" r="30" fill="#F2C94C" fill-opacity="0.8"/>
<circle cx="292.5" cy="240.5" r="5.5" fill="#F2C94C"/>
<circle cx="147.5" cy="297.5" r="20.5" fill="white"/>
<ellipse cx="220" cy="297.5" rx="21" ry="20.5" fill="white"/>
<circle cx="292.5" cy="297.5" r="20.5" fill="white"/>
<ellipse cx="147.5" cy="354" rx="20.5" ry="20" fill="#EB5757"/>
<ellipse cx="220" cy="354" rx="21" ry="20" fill="white"/>
<ellipse cx="292.5" cy="354" rx="20.5" ry="20" fill="#27AE60"/>
</svg>
